:SAMPLES-PER-SECOND 30
:FULLY-SPECIFIED
:DEGREES
763
root  -14.5131 39.8639 21.2676 -1.94513 30.9801 0.0386963
RightUpLeg  -2.37005 -10.5099 -3.96957
RightLeg  13.6729 -1.59051 1.49086
RightFoot  -7.51145 -0.0342147 -0.503974
RightToes  5.82063e-011 0 -3.6325e-017
Spine  6.51395 -0.178718 14.719
Spine1  6.2693 1.17955 -2.77779
HEad  -11.7112 -0.767605 -7.57373
LeftShoulder1  -0.0418494 3.61613 -31.1669
LeftArm  1.16131 11.3524 -41.3505
LeftForeArm  16.471 -25.0978 -4.50502
LeftHand  -0.0272177 6.52953 0.752517
RightShoulder  -0.702602 -5.58998 27.0122
RightArm  4.99095 1.48207 43.0163
RightForeArm  7.44966 39.522 8.77859
RightHand  -0.446312 5.74299 -4.97034
LeftUpLeg  -16.5801 11.3614 5.0905
LeftLeg  23.7338 -1.58245 -0.418693
LeftFoot  -3.04207 0.374094 -4.89974
LeftToes  -1.20963e-009 8.6283e-011 2.04439e-011
764
root  -13.8553 39.8988 21.7358 -1.82397 27.7676 0.200623
RightUpLeg  -1.35844 -10.44 -4.66991
RightLeg  13.0337 1.5472 1.75272
RightFoot  -7.87348 -0.043944 -0.311462
RightToes  5.82063e-011 0 -3.6325e-017
Spine  6.80294 -0.0362339 14.0473
Spine1  6.37161 1.33364 -3.07305
HEad  -12.6206 -0.125581 -8.20479
LeftShoulder1  -0.0629317 3.67232 -31.329
LeftArm  1.95139 10.6694 -40.6611
LeftForeArm  15.6195 -24.7452 -4.47412
LeftHand  -0.032615 6.47168 0.294408
RightShoulder  -0.665132 -5.4953 26.712
RightArm  5.23762 1.75754 44.2365
RightForeArm  8.0361 41.5551 9.40658
RightHand  -0.477235 5.46072 -5.41189
LeftUpLeg  -16.783 8.96074 6.51457
LeftLeg  17.4901 -3.01205 -0.790345
LeftFoot  -3.76688 0.370468 -5.26626
LeftToes  -1.20963e-009 8.6283e-011 2.04439e-011
765
root  -13.1243 39.8818 22.1975 -1.51352 24.369 0.495026
RightUpLeg  -0.861312 -10.5388 -5.68352
RightLeg  13.007 5.18323 1.99367
RightFoot  -8.54188 -0.0613831 0.150751
RightToes  5.82063e-011 0 -3.6325e-017
Spine  6.90822 -0.0300874 13.2462
Spine1  6.51485 1.37996 -3.55772
HEad  -13.3842 0.699703 -8.10829
LeftShoulder1  -0.00301242 3.51071 -31.4138
LeftArm  2.42758 10.6955 -39.9102
LeftForeArm  15.682 -24.5081 -4.41538
LeftHand  -0.0412478 6.69018 -0.425392
RightShoulder  -0.669177 -5.50856 26.6802
RightArm  6.09041 2.16688 45.4524
RightForeArm  8.9673 42.2834 9.5979
RightHand  -0.450421 5.51948 -5.10401
LeftUpLeg  -16.9582 5.37618 8.09719
LeftLeg  12.0271 -3.26986 -0.267932
LeftFoot  -4.03229 0.423715 -6.25484
LeftToes  -1.20963e-009 8.6283e-011 2.04439e-011
766
root  -12.372 39.8267 22.6309 -0.970032 20.6596 0.614288
RightUpLeg  -1.17232 -9.90404 -6.33057
RightLeg  13.4347 8.26891 1.84502
RightFoot  -9.44898 -0.0800788 0.978303
RightToes  5.82063e-011 0 -3.6325e-017
Spine  6.95877 -0.0636142 12.3538
Spine1  6.41426 1.4224 -4.28497
HEad  -13.8541 2.07771 -8.02291
LeftShoulder1  0.0424143 3.38792 -30.4128
LeftArm  2.71698 11.0931 -40.2358
LeftForeArm  15.7374 -23.5547 -4.24052
LeftHand  -0.0421432 6.46635 -0.76403
RightShoulder  -0.742634 -5.68822 27.3607
RightArm  8.33626 2.66153 45.7397
RightForeArm  8.89217 42.2813 9.60343
RightHand  -0.434097 5.7428 -4.84591
LeftUpLeg  -17.8512 3.28321 9.43154
LeftLeg  8.45358 -6.18808 0.702086
LeftFoot  -3.39713 0.40026 -5.4633
LeftToes  -1.20963e-009 8.6283e-011 2.04439e-011
767
root  -11.5339 39.6605 23.0339 -0.845001 16.7396 0.407593
RightUpLeg  -1.88459 -7.76972 -6.68306
RightLeg  14.975 10.1809 1.52797
RightFoot  -10.6914 -0.0831059 1.89854
RightToes  5.82063e-011 0 -3.6325e-017
Spine  7.50471 -0.0255617 11.278
Spine1  6.38142 1.333 -3.83098
HEad  -14.7629 2.95133 -8.23838
LeftShoulder1  0.0225619 3.44215 -30.7144
LeftArm  4.06359 10.7552 -39.9745
LeftForeArm  15.2365 -22.2255 -4.24018
LeftHand  -0.0487447 7.43115 -0.340057
RightShoulder  -0.740818 -5.70874 26.9532
RightArm  10.3697 2.71456 46.3915
RightForeArm  8.71378 41.4899 9.34128
RightHand  -0.394198 5.26865 -4.57049
LeftUpLeg  -18.7642 2.07437 10.7573
LeftLeg  7.31683 -11.862 1.40268
LeftFoot  -2.7048 0.473483 -6.05762
LeftToes  -1.20963e-009 8.6283e-011 2.04439e-011
768
root  -10.5906 39.3823 23.3945 -0.981323 12.649 -0.334595
RightUpLeg  -2.85882 -3.81335 -6.88127
RightLeg  17.07 10.3888 1.70608
RightFoot  -12.2617 -0.0590224 2.94232
RightToes  5.82063e-011 0 -3.6325e-017
Spine  8.46317 -0.178044 11.3079
Spine1  6.03907 1.31403 -4.16517
HEad  -15.6932 4.15931 -7.93869
LeftShoulder1  0.111961 3.19775 -30.4397
LeftArm  3.81919 10.9302 -40.0975
LeftForeArm  16.4438 -20.8875 -4.45693
LeftHand  -0.0826915 7.73712 -1.9163
RightShoulder  -0.691305 -5.55336 27.0562
RightArm  11.851 2.30907 46.2371
RightForeArm  9.41587 40.4222 8.94655
RightHand  -0.267649 4.56008 -3.41988
LeftUpLeg  -19.7628 0.853869 13.0491
LeftLeg  8.76752 -17.5753 0.157459
LeftFoot  -3.01053 0.59857 -7.9668
LeftToes  -1.20963e-009 8.6283e-011 2.04439e-011
769
root  -9.53069 39.0739 23.756 -1.29575 8.32701 -0.85202
RightUpLeg  -3.60973 1.34397 -7.75507
RightLeg  18.9703 9.71563 2.25649
RightFoot  -13.798 -0.00121581 4.29767
RightToes  5.82063e-011 0 -3.6325e-017
Spine  9.56668 -0.35344 10.9927
Spine1  6.09955 1.24041 -4.17718
HEad  -16.717 4.90793 -7.49307
LeftShoulder1  0.114332 3.19278 -30.6473
LeftArm  2.68649 10.5293 -40.0575
LeftForeArm  18.3735 -18.9997 -5.01777
LeftHand  -0.0875495 6.96079 -3.33864
RightShoulder  -0.668173 -5.4821 27.0893
RightArm  13.97 2.61923 45.9707
RightForeArm  7.79953 37.5403 8.14641
RightHand  -0.336023 5.83022 -3.79697
LeftUpLeg  -19.987 -2.27935 15.4626
LeftLeg  11.4046 -19.1149 -1.87762
LeftFoot  -3.66405 0.664451 -9.56734
LeftToes  -1.20963e-009 8.6283e-011 2.04439e-011
